<svg width="22" height="22" viewBox="0 0 22 22" fill="none" xmlns="http://www.w3.org/2000/svg">
<path d="M5.50098 11.011C6.44098 7.16227 10.441 4.33691 14.001 4.33691C17.561 4.33691 20.061 7.16227 21.001 11.011C20.061 14.8708 17.561 17.6851 14.001 17.6851C10.441 17.6851 6.44098 14.8708 5.50098 11.011Z" stroke="#80B5DB" stroke-width="2" stroke-linecap="round" stroke-linejoin="round"/>
<path d="M17.001 11.0107V11.5669" stroke="#80B5DB" stroke-width="2" stroke-linecap="round" stroke-linejoin="round"/>
<path d="M15.0006 17.6084C13.6998 15.7139 12.9951 13.3961 12.9951 11.0122C12.9951 8.62833 13.6998 6.31057 15.0006 4.41602" stroke="#80B5DB" stroke-width="2" stroke-linecap="round" stroke-linejoin="round"/>
<path d="M6.00096 9.53208C6.00096 6.56212 4.58096 4.30405 1.73096 3.78125C0.730958 5.44977 0.730958 9.34298 1.96096 11.0115C0.720958 12.68 0.720958 16.5732 1.73096 18.2418C4.58096 17.7189 6.00096 15.4609 6.00096 12.4909" stroke="#80B5DB" stroke-width="2" stroke-linecap="round" stroke-linejoin="round"/>
<path d="M9.46098 5.73861C9.20098 4.20357 8.17098 2.37932 7.00098 1.00002H12.801C13.2755 0.99806 13.7351 1.18382 14.0978 1.52411C14.4606 1.86441 14.7027 2.33706 14.781 2.85763L15.011 4.41492" stroke="#80B5DB" stroke-width="2" stroke-linecap="round" stroke-linejoin="round"/>
<path d="M14.51 17.5845L14.28 19.1418C14.2017 19.6624 13.9596 20.135 13.5969 20.4753C13.2342 20.8156 12.7745 21.0014 12.3 20.9994H8C8.96885 19.7775 9.49926 18.2015 9.49 16.5723" stroke="#80B5DB" stroke-width="2" stroke-linecap="round" stroke-linejoin="round"/>
</svg>
