<svg width="24" height="24" viewBox="0 0 24 24" fill="none" xmlns="http://www.w3.org/2000/svg">
<g clip-path="url(#clip0_1980_424)">
<path d="M7.15003 15.2401H4.36003C4.25394 15.2401 4.1522 15.2822 4.07719 15.3573C4.00217 15.4323 3.96003 15.534 3.96003 15.6401V17.6401C3.96003 17.8501 4.14003 18.0401 4.36003 18.0401H7.16003V19.3601H3.66003C3.10003 19.3601 2.64003 18.9001 2.64003 18.3301V14.9401C2.64003 14.3801 3.10003 13.9201 3.67003 13.9201H7.15003V15.2401ZM8.16003 11.5401C8.16003 12.1201 7.69003 12.5901 7.11003 12.5901H2.63003V11.2401H6.41003C6.51612 11.2401 6.61786 11.198 6.69287 11.1229C6.76789 11.0479 6.81003 10.9462 6.81003 10.8401V6.39011C6.81003 6.33758 6.79968 6.28556 6.77958 6.23703C6.75948 6.1885 6.73002 6.14441 6.69287 6.10726C6.65573 6.07012 6.61163 6.04066 6.5631 6.02056C6.51457 6.00045 6.46256 5.99011 6.41003 5.99011H4.39003C4.33666 5.98877 4.28357 5.99813 4.23388 6.01764C4.18419 6.03714 4.13891 6.06639 4.1007 6.10367C4.06249 6.14095 4.03213 6.18549 4.0114 6.23469C3.99068 6.28388 3.98001 6.33673 3.98003 6.39011V8.41011C3.98003 8.64011 4.16003 8.81011 4.38003 8.81011H6.00003V10.1601H3.68003C3.10003 10.1601 2.63003 9.70011 2.63003 9.12011V5.68011C2.63003 5.11011 3.10003 4.64011 3.68003 4.64011H7.10003C7.68003 4.64011 8.15003 5.11011 8.15003 5.68011V11.5401H8.16003ZM21.36 19.3601H20.04V15.2401H19.11C19.0039 15.2401 18.9022 15.2822 18.8272 15.3573C18.7522 15.4323 18.71 15.534 18.71 15.6401V19.3601H17.38V15.2401H16.45C16.3439 15.2401 16.2422 15.2822 16.1672 15.3573C16.0922 15.4323 16.05 15.534 16.05 15.6401V19.3601H14.72V14.9401C14.72 14.3801 15.18 13.9201 15.75 13.9201H21.36V19.3601ZM21.37 11.5401C21.37 12.1201 20.9 12.5901 20.32 12.5901H15.84V11.2401H19.62C19.7261 11.2401 19.8279 11.198 19.9029 11.1229C19.9779 11.0479 20.02 10.9462 20.02 10.8401V6.39011C20.02 6.28402 19.9779 6.18228 19.9029 6.10726C19.8279 6.03225 19.7261 5.99011 19.62 5.99011H17.59C17.5375 5.99011 17.4855 6.00045 17.437 6.02056C17.3884 6.04066 17.3443 6.07012 17.3072 6.10726C17.27 6.14441 17.2406 6.1885 17.2205 6.23703C17.2004 6.28556 17.19 6.33758 17.19 6.39011V8.41011C17.19 8.64011 17.37 8.81011 17.59 8.81011H19.21V10.1601H16.9C16.32 10.1601 15.85 9.70011 15.85 9.12011V5.68011C15.85 5.11011 16.32 4.64011 16.9 4.64011H20.33C20.91 4.64011 21.38 5.11011 21.38 5.68011V11.5401H21.37ZM13.72 4.64011H10.28C9.70003 4.64011 9.24003 5.11011 9.24003 5.68011V9.12011C9.24003 9.70011 9.70003 10.1601 10.28 10.1601H13.72C14.29 10.1601 14.76 9.70011 14.76 9.12011V5.68011C14.76 5.11011 14.29 4.64011 13.72 4.64011ZM13.42 6.39011V8.41011C13.42 8.51619 13.3779 8.61793 13.3029 8.69295C13.2279 8.76796 13.1261 8.81011 13.02 8.81011H10.99C10.8839 8.81011 10.7822 8.76796 10.7072 8.69295C10.6322 8.61793 10.59 8.51619 10.59 8.41011V6.40011C10.59 6.18011 10.76 6.00011 10.99 6.00011H13C13.23 6.00011 13.4 6.18011 13.4 6.40011L13.42 6.39011ZM12.63 13.9201H9.24003C8.67003 13.9201 8.21003 14.3801 8.21003 14.9401V18.3301C8.21003 18.9001 8.67003 19.3601 9.24003 19.3601H12.63C13.2 19.3601 13.66 18.9001 13.66 18.3301V14.9401C13.66 14.3801 13.2 13.9201 12.63 13.9201ZM12.33 15.6401V17.6401C12.33 17.7462 12.2879 17.8479 12.2129 17.9229C12.1379 17.998 12.0361 18.0401 11.93 18.0401V18.0301H9.94003C9.83394 18.0301 9.7322 17.988 9.65719 17.9129C9.58217 17.8379 9.54003 17.7362 9.54003 17.6301V15.6401C9.54003 15.4201 9.72003 15.2401 9.94003 15.2401H11.94C12.16 15.2401 12.34 15.4201 12.34 15.6401H12.33ZM23.49 1.10011C23.3282 0.935509 23.1352 0.804764 22.9223 0.715489C22.7094 0.626213 22.4809 0.580193 22.25 0.580107H1.75003C1.51984 0.57878 1.29169 0.62314 1.07877 0.710615C0.865847 0.798091 0.672402 0.926945 0.509634 1.08971C0.346867 1.25248 0.218013 1.44593 0.130537 1.65884C0.0430615 1.87176 -0.00129784 2.09992 2.89047e-05 2.33011V21.6701C-0.00129784 21.9003 0.0430615 22.1285 0.130537 22.3414C0.218013 22.5543 0.346867 22.7477 0.509634 22.9105C0.672402 23.0733 0.865847 23.2021 1.07877 23.2896C1.29169 23.3771 1.51984 23.4214 1.75003 23.4201H22.25C22.4802 23.4214 22.7084 23.3771 22.9213 23.2896C23.1342 23.2021 23.3277 23.0733 23.4904 22.9105C23.6532 22.7477 23.782 22.5543 23.8695 22.3414C23.957 22.1285 24.0014 21.9003 24 21.6701V2.33011C24 1.85011 23.8 1.41011 23.49 1.09011M23.49 21.6701C23.4914 21.8333 23.4602 21.9952 23.3984 22.1462C23.3365 22.2973 23.2452 22.4345 23.1298 22.5499C23.0144 22.6653 22.8772 22.7566 22.7261 22.8184C22.5751 22.8803 22.4132 22.9114 22.25 22.9101H1.75003C1.58598 22.9128 1.42306 22.8826 1.27085 22.8214C1.11864 22.7601 0.980224 22.669 0.863746 22.5535C0.747267 22.438 0.655082 22.3003 0.592618 22.1486C0.530154 21.9968 0.498673 21.8342 0.500029 21.6701V2.33011C0.498697 2.1669 0.52986 2.00505 0.591704 1.85401C0.653548 1.70296 0.744836 1.56574 0.860247 1.45032C0.975658 1.33491 1.11288 1.24363 1.26393 1.18178C1.41497 1.11994 1.57682 1.08877 1.74003 1.09011H22.24C22.5689 1.09011 22.8843 1.22075 23.1168 1.45329C23.3494 1.68584 23.48 2.00124 23.48 2.33011V21.6701H23.49Z" fill="#F8F9FA"/>
</g>
<defs>
<clipPath id="clip0_1980_424">
<rect width="24" height="24" fill="white"/>
</clipPath>
</defs>
</svg>
