<svg width="24" height="24" viewBox="0 0 24 24" fill="none" xmlns="http://www.w3.org/2000/svg">
<g clip-path="url(#clip0_1980_426)">
<path d="M11.9795 0C5.67846 0 0.511461 4.86 0.0224609 11.037L6.45446 13.695C6.99946 13.324 7.65746 13.105 8.36646 13.105C8.42946 13.105 8.49146 13.109 8.55446 13.111L11.4155 8.969V8.91C11.4155 6.415 13.4435 4.386 15.9395 4.386C18.4335 4.386 20.4635 6.417 20.4635 8.913C20.4635 11.409 18.4335 13.438 15.9395 13.438H15.8345L11.7585 16.349C11.7585 16.401 11.7625 16.454 11.7625 16.508C11.7625 18.383 10.2475 19.904 8.37246 19.904C6.73746 19.904 5.35646 18.731 5.04146 17.177L0.436461 15.27C1.86246 20.307 6.48646 24 11.9795 24C18.6065 24 23.9785 18.627 23.9785 12C23.9785 5.373 18.6055 0 11.9795 0ZM7.54046 18.21L6.06746 17.6C6.32946 18.143 6.78146 18.599 7.38146 18.85C8.67846 19.389 10.1745 18.774 10.7135 17.475C10.9765 16.845 10.9775 16.156 10.7185 15.526C10.4595 14.896 9.96846 14.405 9.34146 14.143C8.71746 13.883 8.05146 13.894 7.46346 14.113L8.98646 14.743C9.94246 15.143 10.3955 16.243 9.99546 17.198C9.59846 18.155 8.49746 18.608 7.54046 18.21ZM18.9555 8.907C18.9555 7.245 17.6025 5.892 15.9405 5.892C14.2755 5.892 12.9255 7.245 12.9255 8.907C12.9255 10.572 14.2755 11.922 15.9405 11.922C17.6035 11.922 18.9555 10.572 18.9555 8.907ZM13.6825 8.902C13.6825 7.65 14.6955 6.636 15.9475 6.636C17.1965 6.636 18.2135 7.65 18.2135 8.902C18.2135 10.153 17.1965 11.167 15.9475 11.167C14.6945 11.167 13.6825 10.153 13.6825 8.902Z" fill="#F8F9FA"/>
</g>
<defs>
<clipPath id="clip0_1980_426">
<rect width="24" height="24" fill="white"/>
</clipPath>
</defs>
</svg>
